<svg width="70" height="70" viewBox="0 0 70 70" fill="none" xmlns="http://www.w3.org/2000/svg">
<g filter="url(#filter0_d_11_21)">
<circle cx="35" cy="31" r="25" fill="white"/>
</g>
<g clip-path="url(#clip0_11_21)">
<path d="M36.6924 19.0882C39.7085 19.4829 42.244 21.8054 43.017 24.7731C43.2517 25.6739 43.3367 26.5981 43.2258 27.5126C43.0205 29.2071 42.3882 30.7197 41.1756 31.9753C40.3294 32.8514 39.3773 33.5369 38.2379 33.9726C37.0523 34.4262 35.813 34.5759 34.5788 34.4099C30.6853 33.8877 28.1324 30.8314 27.8167 27.4919C27.7954 27.2667 27.8149 27.1666 28.0695 27.17C28.7042 27.179 29.3392 27.17 29.9741 27.1625C30.1327 27.1607 30.2245 27.1766 30.2459 27.3806C30.4451 29.2758 32.0431 30.6807 33.9474 30.6146C35.0054 30.578 36.0629 30.578 37.1205 30.584C37.4234 30.5857 37.4996 30.4881 37.4896 30.1991C37.4634 29.4513 37.4755 29.4533 38.2079 29.4496C38.8192 29.4468 39.4304 29.4403 40.0415 29.4299C40.5294 29.4217 40.8641 29.1352 40.8588 28.7393C40.8539 28.3383 40.5228 28.0723 40.0267 28.0776C39.2745 28.0856 38.5222 28.0895 37.7703 28.1118C37.5369 28.1187 37.4634 28.0431 37.4629 27.8124C37.461 27.0608 37.447 26.3095 37.4207 25.5584C37.4115 25.3116 37.512 25.2694 37.7292 25.2686C38.505 25.2661 39.2807 25.2504 40.0562 25.2282C40.4583 25.2169 40.7275 25.0047 40.7795 24.6897C40.8506 24.2583 40.5561 23.911 40.0953 23.9103C39.3076 23.9092 38.5198 23.9138 37.7327 23.9357C37.4718 23.943 37.3854 23.8666 37.3865 23.5999C37.3909 22.8139 37.3803 22.809 36.5858 22.8172C35.6454 22.8269 34.7047 22.8311 33.765 22.8624C31.8718 22.9258 30.3992 24.315 30.2369 26.1795C30.2223 26.3486 30.1786 26.4312 29.9896 26.4354C29.3551 26.4487 28.7205 26.4698 28.0867 26.505C27.8268 26.5195 27.767 26.4277 27.7895 26.1782C28.0842 22.919 30.1203 20.3342 33.1928 19.3403C33.5584 19.2219 33.9295 19.1115 34.3176 19.0906C34.4335 19.0844 35.2081 19.002 35.5295 19.002C35.8432 19.0009 36.5946 19.0754 36.6924 19.0882Z" fill="#050505"/>
<path d="M31.6377 39.3079C31.6377 38.4745 31.6397 37.6412 31.6377 36.8078C31.6377 36.6356 31.6159 36.472 31.8753 36.4808C32.0992 36.4883 32.144 36.6022 32.1403 36.7992C32.1305 37.3273 32.1343 37.8556 32.1367 38.3839C32.1367 38.4711 32.093 38.5868 32.2098 38.6303C32.3195 38.6712 32.3793 38.5707 32.4381 38.5041C33.3192 37.5081 35.1818 37.8563 35.7324 39.3709C35.7735 39.4843 35.7406 39.6742 35.902 39.6808C36.0772 39.6881 36.0368 39.5007 36.0728 39.3856C36.5071 37.9963 38.2634 37.4915 39.3658 38.4382C39.4411 38.5029 39.4968 38.6303 39.6244 38.5705C39.7299 38.5211 39.693 38.406 39.6932 38.3173C39.6932 38.1254 39.7813 38.0398 39.9756 38.0514C40.1737 38.0632 40.1907 38.1954 40.1905 38.3464C40.1893 39.5082 40.1867 40.6699 40.1889 41.8317C40.1889 42.0182 40.1255 42.1136 39.9249 42.1187C39.7244 42.1238 39.6899 42.0141 39.6959 41.8513C39.6992 41.7622 39.7325 41.6546 39.6197 41.6045C39.5069 41.5544 39.4464 41.6482 39.3806 41.7092C38.435 42.5866 36.5612 42.3194 36.0644 40.7077C36.0344 40.6103 36.0417 40.4745 35.8998 40.4794C35.7812 40.4834 35.7847 40.6074 35.7598 40.694C35.3182 42.2313 33.347 42.6864 32.3921 41.6352C32.344 41.5824 32.295 41.5232 32.216 41.5476C32.1107 41.5805 32.1332 41.6745 32.1349 41.7546C32.1372 41.8811 32.176 42.02 32.0265 42.096C31.8153 42.2035 31.6413 42.0947 31.64 41.8434C31.6344 40.9984 31.6377 40.1531 31.6377 39.3079ZM32.1049 40.0665C32.1021 40.9889 32.8165 41.7317 33.706 41.7315C34.5954 41.7314 35.3465 40.9808 35.3511 40.0928C35.356 39.2123 34.5958 38.4111 33.7471 38.4021C32.8317 38.3925 32.1074 39.1262 32.1045 40.0665H32.1049ZM38.0879 38.4396C37.1953 38.4396 36.4599 39.1836 36.4643 40.0826C36.4691 41.0117 37.2138 41.7403 38.1561 41.7383C39.0377 41.7367 39.7281 41.0104 39.7233 40.0913C39.7171 39.1384 39.0263 38.4407 38.0875 38.4405L38.0879 38.4396Z" fill="#EC1819"/>
<path d="M47.5037 40.1156C46.9869 40.1156 46.47 40.1236 45.9534 40.1121C45.7118 40.1066 45.6427 40.1942 45.6845 40.4274C45.7942 41.0332 46.1273 41.4722 46.706 41.6613C47.2993 41.855 47.8676 41.7408 48.3462 41.3176C48.4675 41.2101 48.5655 41.0734 48.6602 40.9396C48.7712 40.7813 48.8814 40.8076 49.0168 40.903C49.1572 41.001 49.142 41.095 49.0594 41.2278C48.667 41.8599 48.0828 42.1722 47.3595 42.1981C46.1761 42.2405 45.4623 41.6497 45.1978 40.5793C44.887 39.3222 45.7428 38.2677 46.6725 38.0096C47.8956 37.6698 49.1835 38.5397 49.323 39.7975C49.3473 40.0168 49.3062 40.1251 49.0528 40.1176C48.5364 40.1026 48.0193 40.1132 47.5024 40.1132L47.5037 40.1156ZM47.2328 39.6809V39.6849C47.6439 39.6849 48.0553 39.6836 48.4661 39.6849C48.6818 39.6849 48.8179 39.6397 48.711 39.3765C48.4801 38.8088 47.9384 38.4397 47.3068 38.4326C46.5634 38.4244 46.0856 38.7179 45.8121 39.3217C45.6955 39.5791 45.7342 39.6898 46.0337 39.6827C46.4338 39.6737 46.8336 39.6809 47.2328 39.6809Z" fill="#EC1819"/>
<path d="M31.0302 40.0739C31.0302 40.6376 31.0302 41.2013 31.0302 41.7649C31.0302 41.9294 31.0682 42.11 30.8055 42.1056C30.58 42.1018 30.528 41.9815 30.5549 41.7828C30.5666 41.6962 30.6028 41.5817 30.4831 41.5393C30.3893 41.5066 30.3368 41.5982 30.2833 41.6545C29.6007 42.3615 28.359 42.3242 27.667 41.7678C26.8423 41.1046 26.6054 39.99 27.1016 39.0387C27.5535 38.173 28.6214 37.7485 29.5779 38.0576C29.8508 38.1457 30.0787 38.3092 30.2875 38.5027C30.3496 38.5605 30.3877 38.6888 30.5068 38.6252C30.5939 38.5784 30.546 38.4775 30.5562 38.4C30.5721 38.2816 30.4953 38.1331 30.6622 38.0622C30.8633 37.9768 31.0267 38.0832 31.0278 38.3125C31.0329 38.8996 31.03 39.4867 31.0302 40.0739ZM28.9613 41.7468C29.8596 41.7517 30.6015 41.0416 30.6094 40.1695C30.6178 39.225 29.9261 38.4695 29.0873 38.4207C27.9684 38.355 27.3155 39.3405 27.3195 40.072C27.3246 40.9891 28.0613 41.742 28.9613 41.7468Z" fill="#050505"/>
<path d="M22.1396 40.489C22.0628 41.3231 21.2562 42.2506 20.0192 42.1918C19.0138 42.144 18.2043 41.4587 18.045 40.5819C17.8517 39.5164 18.288 38.6123 19.2188 38.1498C20.4349 37.5466 21.9462 38.3427 22.1401 39.6889C22.1988 39.9524 22.1986 40.2256 22.1396 40.489V40.489ZM20.0879 38.4331C19.2339 38.4379 18.4355 39.2228 18.4633 40.0947C18.4976 41.1507 19.3107 41.7626 20.1245 41.7485C21.0061 41.7333 21.7462 40.9712 21.7331 40.0768C21.721 39.1925 20.9562 38.4284 20.0879 38.4331Z" fill="#050505"/>
<path d="M49.5333 38.0511C49.7181 38.0224 49.7808 38.1607 49.8459 38.307C50.2078 39.1133 50.5713 39.919 50.9364 40.7241C50.9701 40.7983 51.0019 40.8736 51.0414 40.9434C51.1327 41.1061 51.2042 41.0796 51.2735 40.9226C51.5351 40.3303 51.8036 39.7412 52.0632 39.1482C52.1833 38.874 52.2851 38.5921 52.4059 38.3187C52.4434 38.2327 52.5015 38.1574 52.5752 38.0993C52.6272 38.0602 52.6899 38.0379 52.755 38.0354C52.82 38.0329 52.8843 38.0502 52.9393 38.0851C53.0553 38.16 52.9738 38.279 52.9338 38.3699C52.2026 40.0334 51.4709 41.6968 50.7385 43.3601C50.6743 43.5063 50.5805 43.586 50.4259 43.603C50.1828 43.6297 50.1194 43.5312 50.2268 43.2875C50.4112 42.8691 50.5968 42.4511 50.7836 42.0338C50.8597 41.8647 50.871 41.7082 50.7884 41.5293C50.2934 40.4575 49.8106 39.3802 49.318 38.3072C49.2074 38.0666 49.3368 38.0445 49.5333 38.0511Z" fill="#EC1819"/>
<path d="M26.5349 38.2716C26.536 38.0961 26.4557 38.0575 26.3018 38.0474C26.0358 38.0292 26.0633 38.2017 26.0676 38.3708C26.0697 38.449 26.0952 38.5437 25.9982 38.5865C25.905 38.6276 25.847 38.5529 25.7849 38.5022C25.7227 38.4516 25.6607 38.3942 25.5951 38.345C24.4578 37.4919 22.7618 38.1191 22.4447 39.5091L22.4398 39.5226C22.4398 39.5226 22.4343 39.5425 22.4341 39.5427C22.4069 39.6308 22.395 39.7814 22.3663 39.9494C22.3652 40.2091 22.3425 40.1291 22.3663 40.3393C22.3917 40.4161 22.4028 40.521 22.4279 40.5992C22.8035 41.8153 24.0535 42.407 25.2341 41.9274C25.4535 41.8382 25.6465 41.708 25.8253 41.553C25.9291 41.4631 26.0612 41.4196 26.0686 41.6143C26.0868 42.1093 26.0059 42.5847 25.5812 42.9106C24.8599 43.4641 23.6928 43.3384 23.0836 42.6547C23.0368 42.6023 22.9993 42.5354 22.9421 42.4993C22.8048 42.4127 22.6215 42.3933 22.5101 42.4785C22.3624 42.5915 22.5436 42.7105 22.603 42.7986C23.1355 43.5915 23.9398 43.7573 24.8067 43.6542C26.0622 43.5049 26.4687 42.7997 26.51 41.9692C26.5712 40.7394 26.5274 39.5045 26.5349 38.2716ZM24.4465 41.6552C23.5104 41.6495 22.8423 40.9803 22.8245 40.0764C22.8063 39.1321 23.7217 38.3555 24.5843 38.4161C25.4295 38.4755 26.1121 39.1678 26.1038 40.0764C26.0954 40.9948 25.3962 41.6603 24.4465 41.6552Z" fill="#050505"/>
<path d="M42.4451 41.7928C42.511 41.7318 42.5661 41.6601 42.608 41.5807C42.6666 41.4708 42.7096 41.3532 42.7359 41.2314C42.7359 41.208 42.7378 41.185 42.74 41.166C42.824 40.4326 42.3272 40.0793 41.7273 39.7985C41.5233 39.7031 41.3295 39.5813 41.1736 39.4186C41.0107 39.2486 40.8937 39.0423 41.0164 38.7992C41.1474 38.5392 41.36 38.3842 41.669 38.4091C41.882 38.4262 42.0828 38.5158 42.2378 38.663C42.3658 38.7812 42.4855 38.7951 42.5919 38.6432C42.6913 38.501 42.6513 38.3873 42.5164 38.2848C42.2473 38.0788 41.9532 37.9501 41.6097 37.9512C41.0144 37.9534 40.5537 38.4122 40.5378 39.0072C40.5247 39.5036 40.8012 39.8021 41.1825 40.0374C41.4421 40.1975 41.7145 40.3372 41.9686 40.5044C42.217 40.6673 42.3402 40.9079 42.2455 41.2031C42.1481 41.5065 41.9287 41.692 41.6028 41.7284C41.3008 41.7622 41.0504 41.6469 40.835 41.4438C40.7341 41.348 40.6451 41.2621 40.5223 41.4242C40.3994 41.5864 40.3267 41.6931 40.6479 41.9302C41.1935 42.3324 41.9408 42.2592 42.4376 41.7975L42.4451 41.7928Z" fill="#EC1819"/>
<path d="M44.8044 41.7928C44.8703 41.7318 44.9254 41.6601 44.9672 41.5807C45.0259 41.4708 45.069 41.3532 45.0952 41.2314C45.0952 41.208 45.097 41.185 45.0992 41.166C45.1833 40.4326 44.6865 40.0793 44.0866 39.7985C43.8826 39.7031 43.6888 39.5813 43.5329 39.4186C43.37 39.2486 43.253 39.0423 43.3757 38.7992C43.5067 38.5392 43.7193 38.3842 44.0282 38.4091C44.2413 38.4262 44.4421 38.5158 44.5971 38.663C44.725 38.7812 44.8448 38.7951 44.9512 38.6432C45.0506 38.501 45.0106 38.3873 44.8757 38.2848C44.6066 38.0788 44.3125 37.9501 43.969 37.9512C43.3737 37.9534 42.913 38.4122 42.8971 39.0072C42.884 39.5036 43.1605 39.8021 43.5418 40.0374C43.8014 40.1975 44.0739 40.3372 44.3278 40.5044C44.5762 40.6673 44.6995 40.9079 44.6048 41.2031C44.5073 41.5065 44.288 41.692 43.9621 41.7284C43.6601 41.7622 43.4097 41.6469 43.1943 41.4438C43.0934 41.348 43.0044 41.2621 42.8816 41.4242C42.7588 41.5864 42.6862 41.6931 43.0072 41.9302C43.5528 42.3324 44.3001 42.2592 44.7971 41.7975L44.8044 41.7928Z" fill="#EC1819"/>
</g>
<defs>
<filter id="filter0_d_11_21" x="0" y="0" width="70" height="70" filterUnits="userSpaceOnUse" color-interpolation-filters="sRGB">
<feFlood flood-opacity="0" result="BackgroundImageFix"/>
<feColorMatrix in="SourceAlpha" type="matrix" values="0 0 0 0 0 0 0 0 0 0 0 0 0 0 0 0 0 0 127 0" result="hardAlpha"/>
<feOffset dy="4"/>
<feGaussianBlur stdDeviation="5"/>
<feColorMatrix type="matrix" values="0 0 0 0 0 0 0 0 0 0 0 0 0 0 0 0 0 0 0.05 0"/>
<feBlend mode="normal" in2="BackgroundImageFix" result="effect1_dropShadow_11_21"/>
<feBlend mode="normal" in="SourceGraphic" in2="effect1_dropShadow_11_21" result="shape"/>
</filter>
<clipPath id="clip0_11_21">
<rect x="18" y="19" width="35" height="24.6828" fill="white"/>
</clipPath>
</defs>
</svg>
